<svg xmlns="http://www.w3.org/2000/svg" xmlns:xlink="http://www.w3.org/1999/xlink" viewBox="0 0 3710 3710"><defs><style>.cls-1,.cls-22,.cls-25,.cls-4,.cls-8{fill:#fff;}.cls-2{fill:#d9e9b4;}.cls-3{fill:#d9efb4;}.cls-4{opacity:0.78;}.cls-5{fill:url(#linear-gradient);}.cls-6{fill:url(#linear-gradient-2);}.cls-7,.cls-8{opacity:0.6;}.cls-9{fill:url(#linear-gradient-3);}.cls-10{fill:#ff7bac;}.cls-11{fill:#f27aaa;}.cls-12{fill:#f27aa9;}.cls-13{fill:url(#linear-gradient-4);}.cls-14{fill:url(#linear-gradient-5);}.cls-15{fill:url(#linear-gradient-6);}.cls-16{fill:url(#linear-gradient-7);}.cls-17{fill:url(#linear-gradient-8);}.cls-18{fill:url(#linear-gradient-9);}.cls-19{fill:url(#linear-gradient-10);}.cls-20{fill:url(#linear-gradient-11);}.cls-21{fill:#37474f;}.cls-22{opacity:0.56;}.cls-23{fill:#bdd0fb;}.cls-24{fill:url(#linear-gradient-12);}.cls-25{opacity:0.5;}.cls-26{fill:url(#linear-gradient-13);}</style><linearGradient id="linear-gradient" x1="937.22" y1="757.99" x2="1907.23" y2="1860.51" gradientTransform="matrix(-0.19, 0.98, -0.98, -0.19, 2125.21, 37.07)" gradientUnits="userSpaceOnUse"><stop offset="0" stop-color="#ce1567"/><stop offset="1" stop-color="#7a1dbc"/></linearGradient><linearGradient id="linear-gradient-2" x1="851.79" y1="833.13" x2="1821.83" y2="1935.68" gradientTransform="translate(106.75 -193.44) rotate(11.18)" xlink:href="#linear-gradient"/><linearGradient id="linear-gradient-3" x1="980.39" y1="1811.06" x2="478.4" y2="2667.84" gradientTransform="translate(378.22 -224.4) rotate(-0.3)" gradientUnits="userSpaceOnUse"><stop offset="0" stop-color="#a737d5"/><stop offset="1" stop-color="#ef497a"/></linearGradient><linearGradient id="linear-gradient-4" x1="2458.35" y1="3946.35" x2="2439.07" y2="2165.93" gradientUnits="userSpaceOnUse"><stop offset="0" stop-color="#ff928e"/><stop offset="0.71" stop-color="#fe7062"/></linearGradient><linearGradient id="linear-gradient-5" x1="2150.4" y1="2301.88" x2="2141.83" y2="2094.05" gradientUnits="userSpaceOnUse"><stop offset="0" stop-color="#e1473d"/><stop offset="1" stop-color="#e9605a"/></linearGradient><linearGradient id="linear-gradient-6" x1="2139.55" y1="1989.86" x2="2182.4" y2="2585.47" xlink:href="#linear-gradient-5"/><linearGradient id="linear-gradient-7" x1="2729.4" y1="2278" x2="2720.83" y2="2070.18" xlink:href="#linear-gradient-5"/><linearGradient id="linear-gradient-8" x1="2716.99" y1="1948.31" x2="2759.84" y2="2543.93" xlink:href="#linear-gradient-5"/><linearGradient id="linear-gradient-9" x1="2479.15" y1="1658.27" x2="2421.3" y2="2082.49" gradientUnits="userSpaceOnUse"><stop offset="0" stop-color="#ff928e"/><stop offset="1" stop-color="#fe7062"/></linearGradient><linearGradient id="linear-gradient-10" x1="2496.6" y1="1988.64" x2="2284.49" y2="3968.32" xlink:href="#linear-gradient-9"/><linearGradient id="linear-gradient-11" x1="2511.99" y1="2232.96" x2="2428.43" y2="2895" xlink:href="#linear-gradient-5"/><linearGradient id="linear-gradient-12" x1="1786.62" y1="2533.03" x2="3060.77" y2="2533.03" gradientTransform="translate(-2043.38 1161.89) rotate(-19.49)" gradientUnits="userSpaceOnUse"><stop offset="0" stop-color="#2b3582"/><stop offset="1" stop-color="#150e42"/></linearGradient><linearGradient id="linear-gradient-13" x1="537.61" y1="2037.52" x2="1839.01" y2="2037.52" gradientTransform="matrix(0.96, -0.29, 0.29, 0.96, 248.63, 226.56)" xlink:href="#linear-gradient-12"/></defs><title>vendor-basic-detail</title><g id="Background"><rect class="cls-1" width="3710" height="3710"/></g><g id="Illustration"><path class="cls-2" d="M2913.5,2844.7c-72.79,75-137.92,119.13-187.79,152.43-486.33,324.73-1042.26,231.13-1214.14,199.14-277.31-51.61-511.39-88-712.51-269.72-457-412.89-434.79-1274.21-85.58-1807.76,41.41-63.27,390.09-580.12,947.23-652.95,13.62-1.78,23.79-2.8,32.7-3.74,86.18-9.12,620.27-57.29,1055.77,307.57,62.33,52.23,162.66,146.43,255.69,290.11C3345,1585.13,3346.1,2398.79,2913.5,2844.7Z"/><path d="M547.19,594.39a47.08,47.08,0,0,1,53.16-47.25c188.39,24.55,836.16,100.14,1371.18,56.27a43.54,43.54,0,0,1,47.1,40.82l117.14,2007a50.11,50.11,0,0,1-46.8,52.94c-225,14.49-1151.83,70.81-1482.68,37.9A39.71,39.71,0,0,1,570.56,2703Z"/><path class="cls-3" d="M569.62,644.58a45.31,45.31,0,0,1,51.16-45.46c181.3,23.62,804.68,96.36,1319.55,54.14a41.91,41.91,0,0,1,45.33,39.29L2098.39,2624a48.21,48.21,0,0,1-45,50.94c-216.56,14-1108.46,68.15-1426.85,36.48a38.21,38.21,0,0,1-34.38-37.63Z"/><path class="cls-4" d="M738.11,792.66l21.39,414.1a26.34,26.34,0,0,0,25.69,25c76.72,1.76,315.78,6.35,450.71-1.39a29.4,29.4,0,0,0,27.7-28.57c2.17-77.69,6.63-303.8-11.57-398.22a33.18,33.18,0,0,0-31.64-26.83L766.9,763.23A28,28,0,0,0,738.11,792.66Z"/><circle class="cls-5" cx="999.78" cy="939.39" r="89.04" transform="translate(52.2 1931.4) rotate(-89.53)"/><path class="cls-6" d="M865.89,1201.51l283.67-1.48a22,22,0,0,0,18.27-34c-24.29-37.58-75-92.71-162.29-89.75-84.13,2.84-133.74,53.13-158.63,89.15A23,23,0,0,0,865.89,1201.51Z"/><g class="cls-7"><path class="cls-1" d="M1872.65,822.81c8.88,0,15.94-6.33,15.67-14s-7.74-14-16.63-14.09l-497.24-6.27c-8.88-.12-13.7,6.63-10.7,15l2.41,6.74c3,8.37,12.71,15.17,21.6,15.12Z"/></g><g class="cls-7"><path class="cls-1" d="M1374.86,865.68c-8.89-.11-13.71,6.64-10.71,15l2.41,6.75c3,8.36,12.72,15.17,21.6,15.12L1873.05,900c8.88,0,15.94-6.34,15.67-14s-7.74-14-16.62-14.1Z"/></g><g class="cls-7"><path class="cls-1" d="M1375.26,944c-8.88-.11-13.7,6.64-10.7,15l2.41,6.75c3,8.36,12.71,15.17,21.6,15.12l484.89-2.52c8.88,0,15.94-6.34,15.67-14s-7.74-14-16.63-14.1Z"/></g><g class="cls-7"><path class="cls-1" d="M1923.72,1355.9c8.88,0,15.7-6.33,15.16-14s-8.26-13.91-17.14-13.94L756.9,1324.87c-8.89,0-11.6,5.62-6,12.54l9.58,11.91c5.57,6.92,17.4,12.54,26.28,12.5Z"/></g><g class="cls-7"><path class="cls-1" d="M757.3,1402.09c-8.89,0-11.6,5.62-6,12.54l9.58,11.9c5.57,6.93,17.4,12.55,26.28,12.5l1137-5.91c8.88,0,15.71-6.34,15.16-14s-8.26-13.91-17.14-13.93Z"/></g><path class="cls-8" d="M752.71,1531c28-2.29,80.44-3.56,109.3-4.11A26.15,26.15,0,0,1,888,1546.8c5.69,23.07,13.59,63.14,12.84,105.64a23.23,23.23,0,0,1-23.33,22.87l-106.54-.59a25.59,25.59,0,0,1-25.32-23.07l-9.88-100.18A18.63,18.63,0,0,1,752.71,1531Z"/><g class="cls-7"><path class="cls-1" d="M949.94,1571.17c-8.88-.33-15,6.59-13.66,15.37l2.67,17.17a19.4,19.4,0,0,0,18.63,15.87l258.74-1.34a16,16,0,0,0,15.87-16.24l-.08-4.37a17.29,17.29,0,0,0-16.42-16.74Z"/></g><path class="cls-8" d="M1333.11,1528c28-2.29,80.43-3.56,109.3-4.11a26.15,26.15,0,0,1,25.93,19.87c5.7,23.07,13.59,63.14,12.84,105.64a23.23,23.23,0,0,1-23.32,22.87l-106.54-.59a25.58,25.58,0,0,1-25.32-23.07l-9.89-100.18A18.64,18.64,0,0,1,1333.11,1528Z"/><g class="cls-7"><path class="cls-1" d="M1530.33,1568.15c-8.87-.33-15,6.59-13.66,15.37l2.67,17.17a19.41,19.41,0,0,0,18.64,15.87l258.74-1.34a16,16,0,0,0,15.87-16.24l-.08-4.37a17.31,17.31,0,0,0-16.43-16.74Z"/></g><path class="cls-1" d="M905.1,1927.9h-.27l-98.31-.43c-14-.07-25.69-9.67-27.09-22.34l-9.07-82.44a18,18,0,0,1,4.16-13.5,21.58,21.58,0,0,1,15-7.5h0c8.28-.61,19.93-1.66,32.28-2.78,26-2.35,58.33-5.27,76.54-5.59,13.21-.14,24.45,7.62,27.62,19.11,5.22,18.91,5,54.75,4.19,92.94C929.9,1917.77,918.69,1927.83,905.1,1927.9Zm-115-118.68a14,14,0,0,0-9.75,4.8,10.45,10.45,0,0,0-2.47,7.85l9.07,82.43c1,8.86,9.41,15.57,19.62,15.62l98.31.43h.2c9.53,0,17.38-6.8,17.55-15.13.76-37.61,1-72.85-3.91-90.78-2.22-8-10.62-13.59-20.22-13.57-17.93.31-50.13,3.22-76,5.56-12.38,1.12-24.07,2.18-32.41,2.79Z"/><path class="cls-8" d="M800.7,1817.68c20.65-1.52,65.51-6.31,86.79-6.69,9-.16,17,5.25,19.12,13.06,4.19,15.17,3.8,45.46,3.23,73.41-.17,8.37-7.82,15.09-17.21,15l-78.56-.34c-9.66-.05-17.72-6.59-18.66-15.17l-7.25-65.88C787.41,1824.31,793.05,1818.24,800.7,1817.68Z"/><g class="cls-7"><path class="cls-1" d="M991.16,1872.68a24.4,24.4,0,0,0,23.9,18.06l909.54-12.49a18.46,18.46,0,0,0-.26-36.91l-909.63.58A24.41,24.41,0,0,0,991.16,1872.68Z"/></g><path class="cls-1" d="M906.19,2138.6h-.27l-98.31-.44c-14-.06-25.69-9.66-27.08-22.33l-9.07-82.44a17.87,17.87,0,0,1,4.16-13.5,21.58,21.58,0,0,1,15-7.5h0c8.28-.61,19.94-1.66,32.28-2.78,26-2.35,58.34-5.27,76.54-5.6h.4c12.93-.07,24.09,7.75,27.23,19.12,5.22,18.9,5,54.75,4.18,92.94C931,2128.47,919.79,2138.53,906.19,2138.6Zm-115-118.68a14,14,0,0,0-9.76,4.8,10.41,10.41,0,0,0-2.46,7.84L788,2115c1,8.86,9.41,15.57,19.62,15.62l98.31.43h.2c9.52-.05,17.38-6.81,17.55-15.14.76-37.61,1-72.84-3.92-90.78-2.22-8-10.74-13.77-20.21-13.57-17.94.32-50.13,3.23-76,5.57-12.37,1.12-24.06,2.17-32.4,2.79Z"/><path class="cls-8" d="M801.8,2028.38c20.64-1.52,65.5-6.31,86.79-6.69,9-.16,17,5.25,19.12,13.06,4.18,15.17,3.8,45.46,3.23,73.41-.17,8.37-7.82,15.09-17.21,15.05l-78.56-.35c-9.67,0-17.72-6.58-18.66-15.16l-7.25-65.88C788.51,2035,794.14,2028.94,801.8,2028.38Z"/><g class="cls-7"><path class="cls-1" d="M992.25,2083.38a24.43,24.43,0,0,0,23.91,18.06L1925.7,2089a18.46,18.46,0,0,0-.27-36.91l-909.62.58A24.41,24.41,0,0,0,992.25,2083.38Z"/></g><path class="cls-1" d="M907.29,2349.29H907l-98.31-.43c-14.05-.06-25.69-9.66-27.09-22.33l-9.07-82.44a17.91,17.91,0,0,1,4.17-13.5,21.57,21.57,0,0,1,15-7.51h0c8.28-.6,19.94-1.66,32.28-2.77,26-2.35,58.33-5.28,76.54-5.6h.4c12.92-.07,24.09,7.74,27.23,19.11,5.22,18.91,5,54.75,4.18,92.94C932.1,2339.17,920.88,2349.22,907.29,2349.29Zm-115-118.67a14,14,0,0,0-9.75,4.79,10.41,10.41,0,0,0-2.46,7.85l9.07,82.44c1,8.86,9.41,15.57,19.61,15.61l98.32.43h.19c9.53,0,17.38-6.8,17.55-15.13.76-37.61,1-72.85-3.91-90.78-2.22-8-10.74-13.8-20.22-13.57-17.93.32-50.12,3.23-76,5.57-12.38,1.12-24.07,2.17-32.41,2.79Z"/><path class="cls-8" d="M802.89,2239.07c20.65-1.52,65.51-6.31,86.8-6.68,9-.16,17,5.25,19.11,13.06,4.19,15.17,3.8,45.45,3.24,73.4-.17,8.38-7.83,15.1-17.21,15.06l-78.57-.35c-9.66,0-17.71-6.59-18.66-15.16l-7.25-65.88C789.6,2245.7,795.24,2239.64,802.89,2239.07Z"/><g class="cls-7"><path class="cls-1" d="M993.35,2294.07a24.4,24.4,0,0,0,23.91,18.06l909.54-12.48a18.46,18.46,0,0,0-.27-36.92l-909.62.59A24.4,24.4,0,0,0,993.35,2294.07Z"/></g><path class="cls-1" d="M908.39,2560h-.27l-98.31-.43c-14-.06-25.69-9.66-27.09-22.33l-9.07-82.44a18,18,0,0,1,4.16-13.51,21.62,21.62,0,0,1,15-7.5h0c8.27-.61,19.93-1.66,32.28-2.78,26-2.35,58.33-5.27,76.54-5.59H902c12.93-.06,24.09,7.75,27.23,19.12,5.22,18.91,5,54.75,4.18,92.94C933.19,2549.86,922,2559.92,908.39,2560Zm-115-118.68a14,14,0,0,0-9.75,4.8,10.45,10.45,0,0,0-2.47,7.85l9.07,82.44c1,8.85,9.41,15.57,19.62,15.61l98.31.43h.2c9.53-.05,17.38-6.8,17.55-15.13.76-37.61,1-72.85-3.91-90.78-2.22-8-10.74-13.83-20.22-13.57-17.93.31-50.13,3.22-76,5.56-12.38,1.12-24.07,2.18-32.41,2.79Z"/><path class="cls-8" d="M804,2449.77c20.64-1.52,65.51-6.31,86.79-6.68,9-.16,17,5.24,19.12,13.06,4.19,15.17,3.8,45.45,3.23,73.4-.17,8.37-7.82,15.09-17.21,15l-78.56-.34c-9.66-.05-17.72-6.59-18.66-15.17l-7.25-65.87C790.7,2456.4,796.34,2450.33,804,2449.77Z"/><g class="cls-7"><path class="cls-1" d="M994.45,2504.77h0a24.4,24.4,0,0,0,23.9,18.06l909.54-12.49a18.46,18.46,0,0,0-.26-36.91L1018,2474A24.41,24.41,0,0,0,994.45,2504.77Z"/></g><path class="cls-9" d="M808.24,2462.68h0a15.1,15.1,0,0,1,20.85,5.56l19.57,34.66a4.85,4.85,0,0,0,8.65-.42l47.53-107.32a5.37,5.37,0,0,1,10.28,2.26c-.32,32.75-8.69,95-60.75,147.44,0,0-28.89-11.06-52.38-61.94A15.83,15.83,0,0,1,808.24,2462.68Z"/><path d="M666,719.4a47.09,47.09,0,0,1,53.16-47.24c188.39,24.55,836.16,100.14,1371.18,56.27a43.53,43.53,0,0,1,47.1,40.82l117.15,2007a50.1,50.1,0,0,1-46.8,52.94c-225,14.49-1151.84,70.81-1482.69,37.9a39.69,39.69,0,0,1-35.72-39.1Z"/><path class="cls-3" d="M688.39,769.59a45.31,45.31,0,0,1,51.16-45.46c181.29,23.63,804.67,96.37,1319.54,54.15a41.89,41.89,0,0,1,45.33,39.28L2217.16,2749a48.24,48.24,0,0,1-45,50.95c-216.57,13.94-1108.46,68.15-1426.86,36.47a38.22,38.22,0,0,1-34.38-37.63Z"/><path class="cls-4" d="M856.87,917.67l21.4,414.1a26.32,26.32,0,0,0,25.68,25c76.72,1.77,315.78,6.35,450.71-1.38a29.41,29.41,0,0,0,27.71-28.57c2.16-77.69,6.62-303.81-11.57-398.23a33.19,33.19,0,0,0-31.65-26.83l-453.48-13.5A28,28,0,0,0,856.87,917.67Z"/><circle class="cls-10" cx="1118.54" cy="1064.4" r="89.04" transform="translate(-203.52 1862.04) rotate(-74.68)"/><path class="cls-11" d="M984.66,1326.52l283.66-1.48a22,22,0,0,0,18.27-34c-24.29-37.58-75-92.7-162.28-89.75-84.13,2.85-133.75,53.14-158.64,89.15A23,23,0,0,0,984.66,1326.52Z"/><g class="cls-7"><path class="cls-1" d="M1991.41,947.83c8.89-.05,15.94-6.34,15.68-14s-7.75-14-16.63-14.1l-497.24-6.27c-8.89-.11-13.7,6.64-10.71,15l2.42,6.75c3,8.36,12.71,15.17,21.59,15.12Z"/></g><g class="cls-7"><path class="cls-1" d="M1493.62,990.69c-8.88-.11-13.7,6.64-10.71,15l2.42,6.74c3,8.37,12.71,15.17,21.6,15.12l484.88-2.52c8.89,0,15.94-6.33,15.68-14s-7.75-14-16.63-14.09Z"/></g><g class="cls-7"><path class="cls-1" d="M1494,1069c-8.89-.11-13.7,6.64-10.71,15l2.41,6.74c3,8.36,12.72,15.17,21.6,15.12l484.89-2.52c8.89-.05,15.94-6.34,15.68-14s-7.75-14-16.63-14.09Z"/></g><g class="cls-7"><path class="cls-1" d="M2042.48,1480.92c8.89-.05,15.71-6.34,15.16-14s-8.25-13.91-17.14-13.93l-1164.84-3.12c-8.88,0-11.6,5.62-6,12.54l9.58,11.9c5.57,6.92,17.4,12.55,26.28,12.5Z"/></g><g class="cls-7"><path class="cls-1" d="M876.06,1527.1c-8.88,0-11.59,5.62-6,12.54l9.58,11.91c5.57,6.92,17.39,12.54,26.28,12.5l1137-5.92c8.89,0,15.71-6.33,15.17-14s-8.26-13.91-17.15-13.94Z"/></g><path class="cls-8" d="M871.48,1656.05c28-2.29,80.43-3.56,109.3-4.11a26.17,26.17,0,0,1,25.93,19.87c5.69,23.08,13.59,63.14,12.84,105.64a23.22,23.22,0,0,1-23.32,22.87l-106.54-.59a25.57,25.57,0,0,1-25.32-23.07l-9.89-100.17A18.65,18.65,0,0,1,871.48,1656.05Z"/><g class="cls-7"><path class="cls-1" d="M1068.7,1696.18c-8.87-.32-15,6.6-13.66,15.37l2.67,17.17a19.42,19.42,0,0,0,18.64,15.88l258.74-1.35A16,16,0,0,0,1351,1727l-.08-4.37a17.31,17.31,0,0,0-16.43-16.75Z"/></g><path class="cls-8" d="M1451.87,1653c28-2.29,80.44-3.56,109.3-4.11a26.17,26.17,0,0,1,25.94,19.87c5.69,23.07,13.58,63.14,12.84,105.64a23.23,23.23,0,0,1-23.33,22.87l-106.54-.59a25.59,25.59,0,0,1-25.32-23.07l-9.89-100.17A18.65,18.65,0,0,1,1451.87,1653Z"/><g class="cls-7"><path class="cls-1" d="M1649.1,1693.16c-8.88-.32-15,6.6-13.66,15.37l2.67,17.17a19.41,19.41,0,0,0,18.63,15.88l258.74-1.35a16,16,0,0,0,15.87-16.23l-.08-4.37a17.3,17.3,0,0,0-16.42-16.75Z"/></g><path class="cls-1" d="M1023.86,2052.91h-.27l-98.31-.43c-14-.06-25.69-9.67-27.09-22.33l-9.07-82.44a17.92,17.92,0,0,1,4.17-13.5,21.59,21.59,0,0,1,15-7.51h0c8.28-.6,19.94-1.66,32.28-2.77,26-2.35,58.34-5.27,76.54-5.6,13.21-.13,24.46,7.63,27.63,19.11,5.22,18.91,5,54.76,4.18,92.94C1048.67,2042.79,1037.45,2052.84,1023.86,2052.91Zm-115-118.67a14,14,0,0,0-9.76,4.79,10.45,10.45,0,0,0-2.46,7.85l9.07,82.44c1,8.85,9.41,15.57,19.62,15.61l98.31.44h.19c9.53,0,17.38-6.8,17.55-15.13.77-37.61,1-72.85-3.91-90.78-2.22-8-10.62-13.59-20.21-13.57-17.94.32-50.13,3.23-76,5.57-12.37,1.12-24.06,2.17-32.4,2.79Z"/><path class="cls-8" d="M919.47,1942.69c20.64-1.52,65.5-6.31,86.79-6.68,9-.16,17,5.25,19.11,13.06,4.19,15.17,3.81,45.45,3.24,73.4-.17,8.38-7.82,15.1-17.21,15.06l-78.57-.35c-9.66,0-17.71-6.59-18.66-15.16l-7.25-65.88C906.17,1949.32,911.81,1943.26,919.47,1942.69Z"/><g class="cls-7"><path class="cls-1" d="M1109.92,1997.69a24.4,24.4,0,0,0,23.91,18.06l909.54-12.48a18.46,18.46,0,0,0-.27-36.92l-909.62.59A24.41,24.41,0,0,0,1109.92,1997.69Z"/></g><path class="cls-1" d="M1025,2263.61h-.27l-98.31-.43c-14-.06-25.69-9.67-27.09-22.34l-9.07-82.44a18,18,0,0,1,4.16-13.5,21.62,21.62,0,0,1,15-7.5h0c8.28-.61,19.93-1.66,32.28-2.78,26-2.35,58.33-5.27,76.54-5.59h.39c12.93-.06,24.09,7.75,27.24,19.12,5.22,18.91,5,54.75,4.18,92.94C1049.77,2253.48,1038.55,2263.54,1025,2263.61Zm-115-118.68a14,14,0,0,0-9.75,4.8,10.46,10.46,0,0,0-2.47,7.85l9.07,82.43c1,8.86,9.41,15.57,19.62,15.62l98.31.43h.2c9.53,0,17.38-6.8,17.55-15.13.76-37.61,1-72.85-3.91-90.78-2.22-8-10.74-13.77-20.22-13.57-17.93.31-50.13,3.22-76,5.56-12.38,1.12-24.07,2.18-32.41,2.79Z"/><path class="cls-8" d="M920.56,2153.39c20.65-1.52,65.51-6.31,86.8-6.68,9-.16,17,5.24,19.11,13.06,4.19,15.17,3.8,45.45,3.23,73.4-.17,8.37-7.82,15.09-17.21,15l-78.56-.34c-9.66-.05-17.72-6.59-18.66-15.17L908,2166.84C907.27,2160,912.91,2154,920.56,2153.39Z"/><g class="cls-7"><path class="cls-1" d="M1111,2208.39a24.4,24.4,0,0,0,23.9,18.06L2044.46,2214a18.46,18.46,0,0,0-.26-36.91l-909.63.58A24.41,24.41,0,0,0,1111,2208.39Z"/></g><path class="cls-1" d="M1026.05,2474.31h-.26l-98.32-.43c-14-.06-25.69-9.66-27.08-22.34l-9.07-82.43a17.89,17.89,0,0,1,4.16-13.51,21.58,21.58,0,0,1,15-7.5h0c8.28-.61,19.94-1.66,32.28-2.78,26-2.35,58.34-5.27,76.54-5.59h.4c12.93-.07,24.09,7.75,27.23,19.12,5.22,18.9,5,54.75,4.18,92.94C1050.86,2464.18,1039.65,2474.24,1026.05,2474.31ZM911,2355.63a14,14,0,0,0-9.76,4.8,10.43,10.43,0,0,0-2.46,7.85l9.07,82.44c1,8.85,9.41,15.56,19.62,15.61l98.31.43h.2c9.52-.05,17.38-6.81,17.55-15.14.76-37.6,1-72.84-3.92-90.78-2.22-8-10.74-13.8-20.21-13.57-17.94.32-50.13,3.23-76,5.57-12.37,1.12-24.06,2.17-32.4,2.79Z"/><path class="cls-8" d="M921.66,2364.09c20.64-1.52,65.5-6.31,86.79-6.69,9-.16,17,5.25,19.12,13.06,4.19,15.17,3.8,45.46,3.23,73.41-.17,8.37-7.82,15.09-17.21,15.05l-78.56-.35c-9.66,0-17.72-6.58-18.66-15.16l-7.25-65.88C908.37,2370.72,914,2364.65,921.66,2364.09Z"/><g class="cls-7"><path class="cls-1" d="M1112.12,2419.09a24.4,24.4,0,0,0,23.9,18.06l909.54-12.49a18.46,18.46,0,0,0-.27-36.91l-909.62.58A24.4,24.4,0,0,0,1112.12,2419.09Z"/></g><path class="cls-1" d="M1027.15,2685h-.27l-98.31-.43c-14.05-.06-25.69-9.66-27.09-22.33l-9.07-82.44a17.92,17.92,0,0,1,4.17-13.5,21.58,21.58,0,0,1,15-7.5h0c8.28-.61,19.94-1.67,32.28-2.78,26-2.35,58.33-5.27,76.54-5.6h.4c12.92-.07,24.09,7.74,27.23,19.11,5.22,18.91,5,54.76,4.18,92.94C1052,2674.88,1040.74,2684.93,1027.15,2685Zm-115-118.67a13.93,13.93,0,0,0-9.75,4.8,10.37,10.37,0,0,0-2.46,7.84l9.07,82.44c1,8.86,9.41,15.57,19.61,15.61l98.32.44h.19c9.53,0,17.38-6.8,17.55-15.13.77-37.61,1-72.85-3.91-90.78-2.22-8-10.74-13.83-20.22-13.57-17.93.32-50.12,3.23-76,5.57-12.38,1.12-24.07,2.17-32.41,2.79Z"/><path class="cls-8" d="M922.75,2574.78c20.65-1.51,65.51-6.3,86.8-6.68,9-.16,17,5.25,19.11,13.06,4.19,15.17,3.8,45.45,3.24,73.41-.17,8.37-7.83,15.09-17.21,15l-78.57-.35c-9.66,0-17.71-6.59-18.66-15.16l-7.25-65.88C909.46,2581.42,915.1,2575.35,922.75,2574.78Z"/><g class="cls-7"><path class="cls-1" d="M1113.21,2629.79h0a24.43,24.43,0,0,0,23.91,18.06l909.54-12.49a18.46,18.46,0,0,0-.27-36.92l-909.62.59A24.41,24.41,0,0,0,1113.21,2629.79Z"/></g><path class="cls-12" d="M927,2587.7h0a15.08,15.08,0,0,1,20.84,5.55l19.57,34.66a4.85,4.85,0,0,0,8.65-.42l47.54-107.32a5.37,5.37,0,0,1,10.27,2.26c-.32,32.76-8.68,95.06-60.74,147.44,0,0-28.9-11.06-52.39-61.94A15.83,15.83,0,0,1,927,2587.7Z"/><path class="cls-12" d="M921.79,2368.61h0a15.1,15.1,0,0,1,20.85,5.56l19.57,34.65a4.84,4.84,0,0,0,8.65-.42l47.53-107.32a5.37,5.37,0,0,1,10.28,2.27c-.32,32.75-8.69,95.05-60.74,147.43,0,0-28.9-11.06-52.39-61.93A15.83,15.83,0,0,1,921.79,2368.61Z"/><path class="cls-12" d="M921.79,2158.36h0a15.1,15.1,0,0,1,20.85,5.55l19.57,34.66a4.85,4.85,0,0,0,8.65-.42l47.53-107.32a5.37,5.37,0,0,1,10.28,2.27c-.32,32.75-8.69,95.05-60.74,147.43,0,0-28.9-11.06-52.39-61.93A15.83,15.83,0,0,1,921.79,2158.36Z"/><path class="cls-12" d="M927,1949.87h0a15.09,15.09,0,0,1,20.84,5.56l19.57,34.66a4.85,4.85,0,0,0,8.65-.42l47.54-107.32a5.36,5.36,0,0,1,10.27,2.26c-.32,32.75-8.68,95.05-60.74,147.44,0,0-28.9-11.06-52.39-61.94A15.84,15.84,0,0,1,927,1949.87Z"/><path class="cls-13" d="M1703.65,2558.15l15.67,487.23c2.73,85,72.46,152.57,157.86,153.08L3044,3205.33c57.08.34,105.7-41.13,114-97.34,18.24-123,41.49-343.2,15.31-549.84Z"/><path class="cls-1" d="M3019.8,3177.46a3.48,3.48,0,0,1-.12-7,105.82,105.82,0,0,0,20-2.67,3.48,3.48,0,0,1,1.58,6.78,113,113,0,0,1-21.34,2.85Zm-48.74-.18h0l-20.89-.12a3.49,3.49,0,0,1,0-7h0l20.89.13a3.48,3.48,0,1,1,0,7Zm-69.63-.41h0l-20.89-.12a3.49,3.49,0,0,1,0-7h0l20.89.13a3.48,3.48,0,0,1,0,7Zm-69.63-.41h0l-20.89-.13a3.48,3.48,0,0,1,0-7h0l20.89.12a3.49,3.49,0,0,1,0,7Zm-69.64-.41h0l-20.89-.12a3.49,3.49,0,0,1-3.46-3.51,3.68,3.68,0,0,1,3.5-3.46l20.89.12a3.49,3.49,0,0,1,0,7Zm-69.63-.41h0l-20.89-.12a3.49,3.49,0,0,1,0-7h0l20.89.13a3.48,3.48,0,0,1,0,7Zm-69.63-.42h0l-20.89-.12a3.48,3.48,0,0,1,0-7h0l20.89.12a3.48,3.48,0,0,1,0,7Zm-69.64-.4h0l-20.89-.13a3.48,3.48,0,0,1,0-7h0l20.89.12a3.49,3.49,0,0,1,0,7Zm-69.63-.41h0l-20.89-.12a3.49,3.49,0,0,1,0-7h0l20.89.13a3.48,3.48,0,0,1,0,7ZM2414,3174h0l-20.89-.12a3.48,3.48,0,0,1,0-7h0l20.89.12a3.48,3.48,0,0,1,0,7Zm-69.64-.4h0l-20.89-.13a3.48,3.48,0,0,1,0-7h0l20.89.12a3.49,3.49,0,0,1,0,7Zm-69.63-.41h0l-20.89-.12a3.49,3.49,0,0,1,0-7h0l20.89.12a3.49,3.49,0,0,1,0,7Zm-69.63-.42h0l-20.89-.12a3.48,3.48,0,0,1,0-7h0l20.89.12a3.48,3.48,0,0,1,0,7Zm-69.64-.4h0l-20.89-.13a3.48,3.48,0,0,1,0-7h0l20.89.12a3.49,3.49,0,0,1,0,7Zm-69.63-.41h0l-20.89-.12a3.49,3.49,0,0,1-3.46-3.51c0-1.92,1.81-3.22,3.5-3.46l20.89.12a3.49,3.49,0,0,1,0,7Zm-69.63-.42h0l-20.89-.12a3.48,3.48,0,1,1,0-7h0l20.89.12a3.48,3.48,0,0,1,0,7Zm-69.64-.41h0l-20.89-.12a3.48,3.48,0,0,1,0-7h0l20.89.12a3.48,3.48,0,0,1,0,7Zm-68.8-7.77a3.46,3.46,0,0,1-1.09-.18,154.36,154.36,0,0,1-19.76-8.09,3.48,3.48,0,1,1,3.08-6.25,147.33,147.33,0,0,0,18.86,7.73,3.48,3.48,0,0,1-1.09,6.79ZM3084,3153.61a3.48,3.48,0,0,1-2.18-6.2,106.45,106.45,0,0,0,14.49-14.06,3.48,3.48,0,1,1,5.3,4.51,112.83,112.83,0,0,1-15.44,15A3.48,3.48,0,0,1,3084,3153.61Zm-1285-26.31a3.48,3.48,0,0,1-2.45-1,154.2,154.2,0,0,1-14.12-16,3.48,3.48,0,1,1,5.53-4.23,149.23,149.23,0,0,0,13.49,15.31,3.49,3.49,0,0,1-2.45,6Zm1322.27-31.09a3.85,3.85,0,0,1-.88-.11,3.48,3.48,0,0,1-2.49-4.25,104.37,104.37,0,0,0,2.21-10.94l1.36-9.24a3.48,3.48,0,1,1,6.89,1l-1.36,9.27a113.2,113.2,0,0,1-2.36,11.67A3.49,3.49,0,0,1,3121.21,3096.21Zm-1359-27.38a3.48,3.48,0,0,1-3.29-2.36,151.51,151.51,0,0,1-5.45-20.65,3.48,3.48,0,1,1,6.84-1.3,145.25,145.25,0,0,0,5.2,19.7,3.5,3.5,0,0,1-2.17,4.43A3.66,3.66,0,0,1,1762.25,3068.83Zm1369.09-41.5a3.11,3.11,0,0,1-.43,0,3.48,3.48,0,0,1-3-3.88q1.24-10.11,2.48-20.72a3.48,3.48,0,1,1,6.92.81q-1.23,10.62-2.49,20.76A3.49,3.49,0,0,1,3131.34,3027.33ZM1753.55,3000.1a3.48,3.48,0,0,1-3.48-3.37l-.67-20.88a3.47,3.47,0,0,1,3.36-3.59,3.55,3.55,0,0,1,3.59,3.37l.68,20.88a3.48,3.48,0,0,1-3.37,3.59Zm1385.4-42h-.33a3.5,3.5,0,0,1-3.14-3.81q1-10.23,1.9-20.77a3.54,3.54,0,0,1,3.77-3.17,3.48,3.48,0,0,1,3.16,3.77q-.92,10.57-1.9,20.84A3.48,3.48,0,0,1,3139,2958.1Zm-1387.64-27.6a3.48,3.48,0,0,1-3.48-3.37l-.67-20.87a3.5,3.5,0,0,1,3.37-3.6,3.54,3.54,0,0,1,3.59,3.38l.67,20.87a3.48,3.48,0,0,1-3.37,3.59Zm1393.26-41.82h-.23a3.5,3.5,0,0,1-3.25-3.71q.69-10.3,1.28-20.82a3.48,3.48,0,1,1,7,.39q-.59,10.55-1.28,20.89A3.48,3.48,0,0,1,3144.57,2888.68Zm-1395.5-27.78a3.49,3.49,0,0,1-3.48-3.37l-.67-20.88a3.48,3.48,0,1,1,7-.21l.67,20.87a3.48,3.48,0,0,1-3.37,3.59Zm1399-41.77H3148a3.48,3.48,0,0,1-3.36-3.6q.35-10.37.6-20.85a3.75,3.75,0,0,1,3.56-3.4,3.48,3.48,0,0,1,3.4,3.57q-.24,10.52-.6,20.91A3.49,3.49,0,0,1,3148.07,2819.13Zm-1401.24-27.82a3.47,3.47,0,0,1-3.47-3.37l-.67-20.89a3.48,3.48,0,0,1,3.36-3.59,3.65,3.65,0,0,1,3.59,3.38l.67,20.88a3.47,3.47,0,0,1-3.36,3.59Zm1402.41-41.82a3.47,3.47,0,0,1-3.48-3.47q0-10.38-.15-20.86a3.5,3.5,0,0,1,3.44-3.52,3.65,3.65,0,0,1,3.52,3.44q.13,10.5.15,20.93a3.48,3.48,0,0,1-3.48,3.48Zm-1404.65-27.78a3.47,3.47,0,0,1-3.47-3.37l-.67-20.89a3.48,3.48,0,0,1,3.36-3.59,3.68,3.68,0,0,1,3.59,3.38l.68,20.88a3.48,3.48,0,0,1-3.37,3.59Zm1403.18-41.82a3.48,3.48,0,0,1-3.48-3.34q-.43-10.4-1-20.82a3.48,3.48,0,0,1,6.95-.38q.59,10.46,1,20.91a3.49,3.49,0,0,1-3.33,3.63Zm-1405.41-27.78a3.48,3.48,0,0,1-3.48-3.37l-.67-20.88a3.47,3.47,0,0,1,3.37-3.59,3.56,3.56,0,0,1,3.59,3.37l.67,20.87a3.49,3.49,0,0,1-3.37,3.6Zm1400.93-41.71a3.48,3.48,0,0,1-3.46-3.18q-.93-10.38-2-20.74a3.48,3.48,0,0,1,6.93-.72q1.08,10.41,2,20.85a3.48,3.48,0,0,1-3.16,3.77Zm-1403.17-27.89a3.49,3.49,0,0,1-3.48-3.37l-.67-20.88a3.48,3.48,0,0,1,3.37-3.59,3.69,3.69,0,0,1,3.59,3.37l.67,20.88a3.48,3.48,0,0,1-3.37,3.59Zm1377.36-20.88h-20.89a3.48,3.48,0,0,1,0-7h20.89a3.48,3.48,0,1,1,0,7Zm-69.63,0H3027a3.48,3.48,0,0,1,0-7h20.89a3.48,3.48,0,0,1,0,7Zm-69.64,0h-20.89a3.48,3.48,0,0,1,0-7h20.89a3.48,3.48,0,1,1,0,7Zm-69.63,0h-20.89a3.48,3.48,0,0,1,0-7h20.89a3.48,3.48,0,0,1,0,7Zm-69.63,0h-20.9a3.48,3.48,0,0,1,0-7H2839a3.48,3.48,0,0,1,0,7Zm-69.64,0h-20.89a3.48,3.48,0,0,1,0-7h20.89a3.48,3.48,0,0,1,0,7Zm-69.63,0h-20.89a3.48,3.48,0,1,1,0-7h20.89a3.48,3.48,0,0,1,0,7Zm-69.64,0h-20.89a3.48,3.48,0,0,1,0-7H2630a3.48,3.48,0,0,1,0,7Zm-69.63,0h-20.89a3.48,3.48,0,1,1,0-7h20.89a3.48,3.48,0,0,1,0,7Zm-69.64,0h-20.89a3.48,3.48,0,0,1,0-7h20.89a3.48,3.48,0,0,1,0,7Zm-69.63,0h-20.89a3.48,3.48,0,0,1,0-7h20.89a3.48,3.48,0,0,1,0,7Zm-69.64,0h-20.89a3.48,3.48,0,0,1,0-7h20.89a3.48,3.48,0,0,1,0,7Zm-69.63,0H2261a3.48,3.48,0,0,1,0-7h20.89a3.48,3.48,0,0,1,0,7Zm-69.64,0h-20.89a3.48,3.48,0,0,1,0-7h20.89a3.48,3.48,0,1,1,0,7Zm-69.63,0h-20.89a3.48,3.48,0,0,1,0-7h20.89a3.48,3.48,0,0,1,0,7Zm-69.64,0h-20.89a3.48,3.48,0,0,1,0-7H2073a3.48,3.48,0,1,1,0,7Zm-69.63,0h-20.89a3.48,3.48,0,0,1,0-7h20.89a3.48,3.48,0,0,1,0,7Zm-69.63,0h-20.89a3.48,3.48,0,1,1,0-7h20.89a3.48,3.48,0,0,1,0,7Zm-69.64,0h-20.89a3.48,3.48,0,0,1,0-7h20.89a3.48,3.48,0,0,1,0,7Zm-69.63,0h-20.89a3.48,3.48,0,1,1,0-7h20.89a3.48,3.48,0,0,1,0,7Z"/><path class="cls-14" d="M2045.59,2204.44l3.52-37.58A28.88,28.88,0,0,1,2071,2150c36.35-5.78,126.5-16,169.9,16.48l6.49,43.67Z"/><path class="cls-15" d="M2159.14,2168.28a52.07,52.07,0,0,1-25.15,0,22.71,22.71,0,0,1-17.33-22V2028.58h59.88v117.58A22.8,22.8,0,0,1,2159.14,2168.28Z"/><path class="cls-16" d="M2625.58,2204.44l3.51-37.58A28.9,28.9,0,0,1,2651,2150c36.35-5.78,126.5-16,169.91,16.48l6.48,43.67Z"/><path class="cls-17" d="M2739.13,2168.28a52.11,52.11,0,0,1-25.16,0,22.71,22.71,0,0,1-17.33-22V2016.18h59.88v130A22.8,22.8,0,0,1,2739.13,2168.28Z"/><path class="cls-18" d="M2110.58,2057.42l644-21.31a31,31,0,0,0,29.66-25.49c3.53-20.16,6.64-50.34,2-81.62-5.27-35.58-35.88-62-72-62.87-120.13-2.86-426-2.77-594.52,63.9a58.88,58.88,0,0,0-35.56,40.85c-4.31,17.7-7.17,41.34-1.54,65.39A27.7,27.7,0,0,0,2110.58,2057.42Z"/><path class="cls-1" d="M2099.42,2028.08a7,7,0,0,1-6.92-6.26c-.1-1-2.52-26,4-50a57.86,57.86,0,0,1,39.39-40c36.07-10.58,105-28.57,161.49-30.16a7,7,0,0,1,.39,13.93c-54.92,1.54-122.54,19.2-158,29.6a43.83,43.83,0,0,0-29.87,30.32c-5.83,21.57-3.58,44.75-3.56,45a7,7,0,0,1-6.23,7.63C2099.89,2028.07,2099.66,2028.08,2099.42,2028.08Z"/><path class="cls-19" d="M1746.82,2189.8c208-2.66,1108-12.12,1369.47,19.43a53.23,53.23,0,0,1,45.75,41.22c15.45,69.83,46.52,232.07,42.84,392.88-.5,21.89-16.55,40.35-38.15,44.44L2570,2800.67H2358l-635.85-126.4a49.7,49.7,0,0,1-40.09-46.15c-4.14-80.91-10.6-270.74,11.28-392.93A55,55,0,0,1,1746.82,2189.8Z"/><path class="cls-1" d="M2363.06,2752.73a3.23,3.23,0,0,1-.69-.07l-20.49-4.08a3.48,3.48,0,1,1,1.36-6.82l20.31,4a3.57,3.57,0,0,1,.47,0h20.89a3.49,3.49,0,0,1,0,7H2364a3.58,3.58,0,0,1-.48,0A3.88,3.88,0,0,1,2363.06,2752.73Zm161.12,0h-20.89a3.49,3.49,0,1,1,0-7h20.89a3.49,3.49,0,0,1,0,7Zm-69.64,0h-20.89a3.49,3.49,0,0,1,0-7h20.89a3.49,3.49,0,0,1,0,7Zm118.24-1.45a3.48,3.48,0,0,1-.64-6.9l20.52-3.88a3.48,3.48,0,1,1,1.3,6.84l-20.53,3.88A3.66,3.66,0,0,1,2572.78,2751.28Zm-278-12.13a3.3,3.3,0,0,1-.69-.07l-20.48-4.07a3.48,3.48,0,1,1,1.36-6.83l20.48,4.08a3.48,3.48,0,0,1-.67,6.89Zm346.44-.81a3.49,3.49,0,0,1-.64-6.91l20.52-3.88a3.48,3.48,0,0,1,1.3,6.84l-20.53,3.88A2.94,2.94,0,0,1,2641.2,2738.34Zm-414.74-12.77a3.21,3.21,0,0,1-.68-.07l-20.49-4.07a3.48,3.48,0,1,1,1.36-6.83l20.49,4.08a3.48,3.48,0,0,1-.68,6.89Zm483.16-.17a3.49,3.49,0,0,1-.64-6.91l20.53-3.88a3.48,3.48,0,0,1,1.29,6.84l-20.53,3.88A2.88,2.88,0,0,1,2709.62,2725.4Zm68.42-13a3.48,3.48,0,0,1-.64-6.9l20.53-3.89a3.48,3.48,0,0,1,1.29,6.84l-20.53,3.89A3.57,3.57,0,0,1,2778,2712.45Zm-619.88-.45a3.21,3.21,0,0,1-.68-.07l-20.49-4.07a3.49,3.49,0,0,1-2.73-4.1,3.44,3.44,0,0,1,4.09-2.73l20.49,4.07a3.48,3.48,0,0,1-.68,6.9Zm688.3-12.49a3.49,3.49,0,0,1-.64-6.91l20.53-3.88a3.48,3.48,0,0,1,1.29,6.84l-20.53,3.89A3.57,3.57,0,0,1,2846.46,2699.51Zm-756.6-1.09a3.21,3.21,0,0,1-.68-.07l-20.49-4.07a3.48,3.48,0,1,1,1.36-6.82l20.49,4.06a3.48,3.48,0,0,1-.68,6.9Zm825-11.86a3.48,3.48,0,0,1-.64-6.9l20.53-3.89a3.49,3.49,0,0,1,1.29,6.85l-20.53,3.88A3.49,3.49,0,0,1,2914.88,2686.56Zm-893.31-1.71a4,4,0,0,1-.69-.07l-20.49-4.08a3.48,3.48,0,1,1,1.36-6.82l20.49,4.07a3.48,3.48,0,0,1-.67,6.9Zm961.73-11.23a3.48,3.48,0,0,1-.64-6.9l20.53-3.89a3.48,3.48,0,0,1,1.29,6.84l-20.53,3.89A3.49,3.49,0,0,1,2983.3,2673.62Zm-1030-2.35a3.23,3.23,0,0,1-.69-.07l-20.49-4.07a3.48,3.48,0,0,1,1.36-6.83l20.49,4.08a3.48,3.48,0,0,1-.67,6.89Zm1098.45-10.6a3.48,3.48,0,0,1-.64-6.9l20.53-3.88a3.48,3.48,0,1,1,1.29,6.84l-20.53,3.88A3.49,3.49,0,0,1,3051.72,2660.67Zm-1166.75-3a3.3,3.3,0,0,1-.69-.07l-20.48-4.07a3.48,3.48,0,1,1,1.36-6.83l20.48,4.08a3.48,3.48,0,0,1-.67,6.89Zm1235.18-10a3.48,3.48,0,0,1-.65-6.9l20.53-3.89a3.49,3.49,0,1,1,1.29,6.85l-20.52,3.88A3.66,3.66,0,0,1,3120.15,2647.73Zm-1303.48-3.61a3.21,3.21,0,0,1-.68-.07L1795.5,2640a3.48,3.48,0,1,1,1.36-6.83l20.49,4.07a3.48,3.48,0,0,1-.68,6.9Zm-68.3-13.57a3.21,3.21,0,0,1-.68-.07L1730,2627l-.41-8.27a3.47,3.47,0,0,1,3.31-3.64c1.87-.39,3.55,1.38,3.64,3.31l.14,2.84,12.38,2.46a3.48,3.48,0,0,1-.68,6.9Zm1405.3-24.78a3.48,3.48,0,0,1-3.48-3.44q-.14-10.44-.44-20.82a3.48,3.48,0,0,1,3.38-3.58,3.6,3.6,0,0,1,3.58,3.37q.32,10.45.44,20.95a3.47,3.47,0,0,1-3.43,3.52Zm-1422.62-32.48a3.49,3.49,0,0,1-3.48-3.37c-.22-6.7-.44-13.69-.64-20.9a3.49,3.49,0,0,1,3.39-3.58,3.67,3.67,0,0,1,3.58,3.39c.19,7.2.41,14.17.63,20.86a3.49,3.49,0,0,1-3.36,3.6Zm1419.88-37.08a3.47,3.47,0,0,1-3.47-3.25q-.69-10.49-1.49-20.81a3.48,3.48,0,0,1,3.2-3.74,3.45,3.45,0,0,1,3.74,3.2c.54,6.91,1,13.89,1.5,20.9a3.5,3.5,0,0,1-3.26,3.7Zm-1421.47-32.55a3.47,3.47,0,0,1-3.48-3.44q-.12-10.3-.17-20.92a3.47,3.47,0,0,1,3.47-3.49h0a3.48,3.48,0,0,1,3.48,3.46q0,10.59.17,20.87a3.48,3.48,0,0,1-3.44,3.52Zm1415.43-36.86a3.49,3.49,0,0,1-3.46-3.11q-1.12-10.49-2.37-20.72a3.5,3.5,0,0,1,3-3.87,3.44,3.44,0,0,1,3.88,3q1.23,10.28,2.38,20.81a3.48,3.48,0,0,1-3.09,3.83A2.42,2.42,0,0,1,3144.89,2466.8ZM1729.55,2434h-.06a3.49,3.49,0,0,1-3.43-3.54q.17-10.42.43-20.92a3.56,3.56,0,0,1,3.57-3.4,3.48,3.48,0,0,1,3.39,3.57q-.27,10.45-.42,20.86A3.49,3.49,0,0,1,1729.55,2434Zm1406.51-36.31a3.47,3.47,0,0,1-3.44-3q-1.56-10.56-3.15-20.62a3.48,3.48,0,1,1,6.88-1.09q1.59,10.09,3.16,20.71a3.5,3.5,0,0,1-2.94,3.95A4.36,4.36,0,0,1,3136.06,2397.71ZM1731.82,2364.4h-.18a3.48,3.48,0,0,1-3.3-3.66q.56-10.51,1.24-20.91a3.43,3.43,0,0,1,3.7-3.24,3.5,3.5,0,0,1,3.25,3.71q-.69,10.34-1.24,20.81A3.47,3.47,0,0,1,1731.82,2364.4ZM3124.71,2329a3.48,3.48,0,0,1-3.42-2.86q-2-10.79-3.88-20.49a3.49,3.49,0,1,1,6.84-1.34q1.89,9.75,3.88,20.58a3.47,3.47,0,0,1-2.79,4A3.52,3.52,0,0,1,3124.71,2329Zm-1387.43-34-.39,0a3.48,3.48,0,0,1-3.08-3.84q1.17-10.63,2.55-20.83a3.42,3.42,0,0,1,3.92-3,3.48,3.48,0,0,1,3,3.92q-1.37,10.09-2.53,20.65A3.47,3.47,0,0,1,1737.28,2295ZM3108,2263.49l-.4,0q-9.68-1.14-20.71-2.23a3.48,3.48,0,0,1-3.13-3.8,3.53,3.53,0,0,1,3.81-3.13q11.1,1.09,20.83,2.23a3.49,3.49,0,0,1-.4,6.95Zm-69.35-6.27h-.25q-10-.72-20.82-1.41a3.48,3.48,0,0,1,.45-7q10.79.69,20.87,1.41a3.48,3.48,0,0,1-.25,7Zm-69.51-4.16h-.18q-10.2-.53-20.85-1a3.48,3.48,0,0,1,.31-7q10.7.49,20.89,1a3.48,3.48,0,0,1-.17,6.95Zm-69.58-3h-.13l-20.87-.76a3.49,3.49,0,0,1-3.36-3.6,3.64,3.64,0,0,1,3.6-3.36l20.89.75a3.49,3.49,0,0,1-.13,7Zm-69.6-2.32h-.1l-20.88-.59a3.5,3.5,0,0,1-3.39-3.58,3.39,3.39,0,0,1,3.58-3.39l20.89.59a3.49,3.49,0,0,1-.1,7Zm-69.61-1.8h-.08l-20.89-.47a3.48,3.48,0,0,1,.08-7h.07l20.89.46a3.49,3.49,0,0,1-.07,7Zm-69.63-1.4h-.07l-20.88-.37a3.48,3.48,0,0,1,.06-7h.06l20.89.36a3.49,3.49,0,0,1-.06,7Zm-926.31,0a3.49,3.49,0,0,1,0-7l20.91-.25h0a3.49,3.49,0,0,1,0,7l-20.9.25Zm69.67-.8a3.48,3.48,0,0,1,0-7l20.9-.21h0a3.48,3.48,0,0,1,0,7l-20.9.21Zm787-.29h0l-20.89-.27a3.49,3.49,0,0,1,.05-7h0l20.89.28a3.48,3.48,0,0,1,0,7ZM1903.7,2243a3.48,3.48,0,0,1,0-7l20.9-.19h0a3.49,3.49,0,0,1,0,7l-20.9.18Zm647.7-.44h0l-20.89-.2a3.48,3.48,0,0,1,0-7h0l20.9.19a3.49,3.49,0,0,1,0,7Zm-578.05-.13a3.48,3.48,0,0,1,0-7l20.89-.15h0a3.49,3.49,0,0,1,0,7l-20.9.14Zm508.42-.46h0l-20.88-.14a3.48,3.48,0,0,1,0-7h0l20.89.13a3.49,3.49,0,0,1,0,7ZM2043,2242a3.49,3.49,0,0,1,0-7l20.9-.11h0a3.48,3.48,0,0,1,0,7l-20.9.12Zm69.66-.35a3.48,3.48,0,0,1,0-7l20.9-.09h0a3.49,3.49,0,0,1,0,7l-20.9.08Zm299.46-.06h0l-20.89-.08a3.48,3.48,0,0,1,0-7h0l20.89.08a3.48,3.48,0,0,1,0,7Zm-229.81-.18a3.48,3.48,0,0,1,0-7l20.9-.05a3.48,3.48,0,1,1,0,7l-20.89.05Zm160.17,0h0l-20.89,0a3.49,3.49,0,0,1,0-7h0l20.9,0a3.48,3.48,0,0,1,0,7Zm-90.53-.07a3.48,3.48,0,1,1,0-7h20.83a3.51,3.51,0,0,1,3.51,3.48,3.45,3.45,0,0,1-3.45,3.48H2252Z"/><path class="cls-20" d="M2550,2889.66H2364.3a48,48,0,0,1-47.72-42.15l-21.45-178.71a47.91,47.91,0,0,1,47.72-53.51h223.09a47.94,47.94,0,0,1,47.88,52.07l-15.94,178.7A48,48,0,0,1,2550,2889.66Z"/><path class="cls-10" d="M2207.2,978.54a11.17,11.17,0,0,1-11.1-10c-1.32-12.55-2.1-25.35-2.35-38a11.19,11.19,0,0,1,11-11.39h.22a11.16,11.16,0,0,1,11.17,11c.23,12.05,1,24.21,2.23,36.14a11.17,11.17,0,0,1-9.95,12.28A9.33,9.33,0,0,1,2207.2,978.54Zm.72-97.36a11.83,11.83,0,0,1-1.32-.08,11.19,11.19,0,0,1-9.79-12.42c1.49-12.59,3.53-25.24,6.08-37.6a11.17,11.17,0,1,1,21.89,4.5c-2.41,11.75-4.35,23.77-5.77,35.73A11.18,11.18,0,0,1,2207.92,881.18Zm22.15-94.79a11.18,11.18,0,0,1-10.53-14.93c4.24-11.92,9.06-23.81,14.32-35.32a11.17,11.17,0,1,1,20.33,9.28c-5,10.93-9.56,22.22-13.6,33.54A11.17,11.17,0,0,1,2230.07,786.39Zm42.79-87.48a11.18,11.18,0,0,1-9.42-17.19c6.81-10.67,14.17-21.18,21.86-31.23a11.18,11.18,0,1,1,17.75,13.59c-7.31,9.54-14.29,19.52-20.76,29.67A11.16,11.16,0,0,1,2272.86,698.91Zm61.22-75.73a11.18,11.18,0,0,1-7.86-19.13c9-8.88,18.48-17.49,28.22-25.61a11.18,11.18,0,0,1,14.31,17.18c-9.26,7.71-18.28,15.9-26.82,24.33A11.16,11.16,0,0,1,2334.08,623.18Zm76.44-60.3a11.18,11.18,0,0,1-5.91-20.67c10.74-6.68,21.91-13,33.18-18.73a11.18,11.18,0,0,1,10.15,19.92c-10.71,5.46-21.32,11.44-31.53,17.79A11.14,11.14,0,0,1,2410.52,562.88Zm409.56-26.61a11.17,11.17,0,0,1-4.62-1c-10.93-5-22.23-9.52-33.57-13.54a11.18,11.18,0,1,1,7.46-21.07c12,4.23,23.85,9,35.36,14.26a11.18,11.18,0,0,1-4.63,21.36ZM2498.37,521a11.18,11.18,0,0,1-3.64-21.74c12-4.13,24.24-7.78,36.51-10.87a11.18,11.18,0,1,1,5.45,21.68c-11.65,2.93-23.32,6.4-34.68,10.32A11.26,11.26,0,0,1,2498.37,521Zm229.09-14.8a10.79,10.79,0,0,1-2.24-.23c-11.77-2.39-23.8-4.31-35.76-5.7A11.18,11.18,0,0,1,2692,478.1c12.58,1.47,25.25,3.49,37.64,6a11.18,11.18,0,0,1-2.22,22.13Zm-134.1-6.36a11.18,11.18,0,0,1-1.17-22.29c12.57-1.34,25.36-2.16,38-2.42h.24a11.17,11.17,0,0,1,.23,22.34c-12,.26-24.19,1-36.13,2.31Q2594,499.88,2593.36,499.88Z"/><path class="cls-10" d="M2888.3,575.07a11.15,11.15,0,0,1-6.37-2c-4.73-3.3-9.61-6.54-14.5-9.66a11.18,11.18,0,0,1,12-18.85c5.14,3.28,10.27,6.69,15.25,10.15a11.18,11.18,0,0,1-6.39,20.36Z"/><path class="cls-10" d="M3069.88,863.42a11.19,11.19,0,0,1-11-9.41c-.91-5.69-2-11.46-3.11-17.14a11.18,11.18,0,1,1,21.91-4.44c1.21,6,2.31,12.05,3.27,18a11.18,11.18,0,0,1-9.26,12.81A12.07,12.07,0,0,1,3069.88,863.42Z"/><path class="cls-10" d="M2640.54,1367.92q-7.71,0-15.48-.27a11.18,11.18,0,1,1,.75-22.34c12,.4,23.9.32,35.64-.26a11.18,11.18,0,1,1,1.09,22.33C2655.28,1367.74,2647.88,1367.92,2640.54,1367.92Zm-74.19-6.28a11.13,11.13,0,0,1-1.89-.16c-12.29-2.1-24.63-4.75-36.68-7.86a11.18,11.18,0,1,1,5.6-21.64c11.44,3,23.16,5.47,34.85,7.47a11.18,11.18,0,0,1-1.88,22.19Zm154.6-1.21a11.18,11.18,0,0,1-2.06-22.16c11.61-2.19,23.27-4.9,34.69-8.07a11.18,11.18,0,1,1,6,21.54c-12,3.34-24.3,6.19-36.52,8.5A11.42,11.42,0,0,1,2721,1360.43Zm-246.71-25.24a11.28,11.28,0,0,1-4.26-.85c-11.52-4.74-23-10-34-15.74a11.17,11.17,0,1,1,10.23-19.87c10.51,5.41,21.39,10.44,32.33,14.94a11.18,11.18,0,0,1-4.26,21.52Zm338.27-2.79a11.18,11.18,0,0,1-4.44-21.44c10.84-4.68,21.62-9.9,32.07-15.49a11.18,11.18,0,1,1,10.56,19.7c-11,5.89-22.35,11.38-33.76,16.31A11.21,11.21,0,0,1,2812.51,1332.4Zm83.2-47.45a11.17,11.17,0,0,1-6.57-20.21c9.57-7,19-14.41,27.92-22.13a11.18,11.18,0,0,1,14.6,16.93c-9.42,8.13-19.31,16-29.39,23.28A11.12,11.12,0,0,1,2895.71,1285Zm70.88-64.45a11.18,11.18,0,0,1-8.37-18.57c7.84-8.89,15.39-18.19,22.44-27.68a11.18,11.18,0,1,1,17.93,13.35c-7.42,10-15.36,19.77-23.61,29.12A11.16,11.16,0,0,1,2966.59,1220.5Zm55.13-78.37a11.17,11.17,0,0,1-9.78-16.56c5.7-10.38,11-21.11,15.83-31.92a11.17,11.17,0,1,1,20.42,9.08c-5.05,11.37-10.66,22.68-16.66,33.61A11.18,11.18,0,0,1,3021.72,1142.13Zm36.6-88.6a11.06,11.06,0,0,1-3.1-.44,11.18,11.18,0,0,1-7.65-13.83c3.27-11.35,6.1-23,8.4-34.6a11.18,11.18,0,0,1,21.93,4.35c-2.43,12.23-5.41,24.48-8.85,36.43A11.18,11.18,0,0,1,3058.32,1053.53Zm16.22-94.41c-.23,0-.46,0-.69,0a11.16,11.16,0,0,1-10.47-11.83c.53-8.7.79-17.51.79-26.21q0-4.72-.1-9.42A11.17,11.17,0,0,1,3075,900.22a11.05,11.05,0,0,1,11.42,10.93q.1,4.94.11,9.91c0,9.14-.29,18.42-.84,27.57A11.18,11.18,0,0,1,3074.54,959.12Z"/><path class="cls-10" d="M2390,1288.94a11.17,11.17,0,0,1-6.42-2c-5-3.48-9.92-7.13-14.77-10.85a11.17,11.17,0,1,1,13.59-17.74c4.61,3.53,9.34,7,14,10.3a11.18,11.18,0,0,1-6.44,20.32Z"/><path class="cls-21" d="M2405.07,1159.3a5.22,5.22,0,0,0,5.85,1.6l59.67-21.94a276.91,276.91,0,0,0,79,42.54l14.55,61.85a5.22,5.22,0,0,0,4.56,4l75.87,7.69a5.23,5.23,0,0,0,5.27-3l26.66-57.67a277.16,277.16,0,0,0,85.93-25.84L2816.5,1202a5.23,5.23,0,0,0,6.05-.4l59.09-48.21a5.23,5.23,0,0,0,1.6-5.85l-21.95-59.68a276.75,276.75,0,0,0,42.55-79l61.85-14.55a5.23,5.23,0,0,0,4-4.56l7.68-75.88a5.21,5.21,0,0,0-3-5.26l-57.68-26.66A276.79,276.79,0,0,0,2890.86,796L2924.32,742a5.22,5.22,0,0,0-.39-6.05l-48.22-59.09a5.22,5.22,0,0,0-5.85-1.6l-59.67,21.94a277.1,277.1,0,0,0-79-42.54l-14.56-61.85a5.21,5.21,0,0,0-4.55-4l-75.88-7.69a5.24,5.24,0,0,0-5.27,3l-26.66,57.67a277.16,277.16,0,0,0-85.93,25.84l-54.06-33.46a5.21,5.21,0,0,0-6.05.39l-59.08,48.22a5.22,5.22,0,0,0-1.6,5.85l21.94,59.67a277,277,0,0,0-42.55,79l-61.85,14.55a5.25,5.25,0,0,0-4,4.56l-7.68,75.88a5.23,5.23,0,0,0,3,5.27l57.68,26.66a276.48,276.48,0,0,0,25.84,85.92l-33.47,54.06a5.24,5.24,0,0,0,.4,6.06Z"/><path class="cls-22" d="M2640.34,994.72a76.72,76.72,0,1,1,11.23-.83A76.78,76.78,0,0,1,2640.34,994.72Zm.18-135.45a58.85,58.85,0,0,0-58.28,67.35,58.77,58.77,0,1,0,58.28-67.35Z"/><path class="cls-22" d="M2641.91,1105.44a190.83,190.83,0,0,1-19.35-1h0c-2-.2-4.07-.44-6.1-.72a189.33,189.33,0,0,1-29.51-6.37l-.39-.11-1.11-.35-2.16-.68a4.47,4.47,0,1,1,2.75-8.51A179.77,179.77,0,0,0,2782.6,1028,178.45,178.45,0,0,0,2820.19,935a181.66,181.66,0,0,0,.94-18.45A179.58,179.58,0,0,0,2659.66,738.3c-98.55-10-186.76,62-196.73,160.54a179.57,179.57,0,0,0,16,94.29,4.27,4.27,0,0,1,.42,1.9,4.47,4.47,0,0,1-8.51,1.89,188.65,188.65,0,0,1-16.83-99c10.47-103.41,103.15-179,206.53-168.54a188.55,188.55,0,0,1,169.51,187.15q0,9.65-1,19.37a188.52,188.52,0,0,1-187.18,169.52Z"/><path class="cls-10" d="M1825.79,1273.08a6.9,6.9,0,0,1-6.62-5c-1.65-5.62-3.15-11.37-4.46-17.09a6.9,6.9,0,1,1,13.45-3.08c1.25,5.44,2.69,10.92,4.26,16.29a6.88,6.88,0,0,1-6.63,8.84Z"/><path class="cls-10" d="M1815.58,1221a6.9,6.9,0,0,1-6.86-6.2,298.33,298.33,0,0,1-1.55-30.33c0-2.12,0-4.25.07-6.39a7.15,7.15,0,0,1,7-6.76,6.92,6.92,0,0,1,6.76,7c0,2.05-.07,4.08-.07,6.11a285.22,285.22,0,0,0,1.47,28.93,6.9,6.9,0,0,1-6.17,7.57Zm1.51-71.66a8.35,8.35,0,0,1-1-.06,6.92,6.92,0,0,1-5.85-7.82,300.17,300.17,0,0,1,7.45-36,6.9,6.9,0,1,1,13.32,3.62,287.79,287.79,0,0,0-7.1,34.32A6.91,6.91,0,0,1,1817.09,1149.31Zm18.85-69.15a6.91,6.91,0,0,1-6.38-9.53,298.4,298.4,0,0,1,16.08-33.07,6.91,6.91,0,1,1,12,6.8,282.14,282.14,0,0,0-15.33,31.53A6.91,6.91,0,0,1,1835.94,1080.16Zm35.28-62.41a6.89,6.89,0,0,1-5.54-11,298.82,298.82,0,0,1,23.67-28.12,6.9,6.9,0,0,1,10,9.53,286.48,286.48,0,0,0-22.57,26.81A6.89,6.89,0,0,1,1871.22,1017.75Zm49.44-51.89a6.9,6.9,0,0,1-4.38-12.24,300,300,0,0,1,29.78-21.51,6.9,6.9,0,1,1,7.38,11.66A286.81,286.81,0,0,0,1925,964.3,6.91,6.91,0,0,1,1920.66,965.86Zm60.53-38.32a6.9,6.9,0,0,1-3-13.14,296.34,296.34,0,0,1,34.12-13.6,6.9,6.9,0,0,1,4.31,13.12,282.81,282.81,0,0,0-32.53,13A6.88,6.88,0,0,1,1981.19,927.54Zm68-22.35a6.9,6.9,0,0,1-1.32-13.67,300.1,300.1,0,0,1,36.43-4.82,6.91,6.91,0,0,1,1,13.78,282.38,282.38,0,0,0-34.75,4.59A7.48,7.48,0,0,1,2049.24,905.19Zm107.18-.87a7.07,7.07,0,0,1-1.21-.11A286.07,286.07,0,0,0,2125,900.5c-1.54-.11-3.06-.21-4.57-.28a6.9,6.9,0,0,1,.72-13.79q2.42.12,4.83.3a298,298,0,0,1,31.69,3.89,6.9,6.9,0,0,1-1.2,13.7Z"/><path class="cls-23" d="M2109.39,1482.29a6.91,6.91,0,0,1-.09-13.81,288,288,0,0,0,34.38-2.52,6.9,6.9,0,1,1,1.84,13.68,301.08,301.08,0,0,1-36,2.65Zm-35.28-1.67a6.39,6.39,0,0,1-.75,0,302.26,302.26,0,0,1-35.64-6,6.91,6.91,0,0,1,3.11-13.46,289.47,289.47,0,0,0,34,5.74,6.9,6.9,0,0,1-.73,13.76Zm105.13-7.77a6.9,6.9,0,0,1-1.75-13.58,285,285,0,0,0,32.75-10.77,6.91,6.91,0,0,1,5.1,12.84,299,299,0,0,1-34.34,11.28A6.7,6.7,0,0,1,2179.24,1472.85Zm-173.83-8.15a6.77,6.77,0,0,1-2.37-.42,297.28,297.28,0,0,1-33.16-14.44,6.91,6.91,0,0,1,6.28-12.3,283.89,283.89,0,0,0,31.61,13.77,6.9,6.9,0,0,1-2.36,13.39Zm239.32-17.89a6.9,6.9,0,0,1-3.31-13,283.94,283.94,0,0,0,29.19-18.33,6.91,6.91,0,1,1,8,11.23A301.46,301.46,0,0,1,2248,1446,7,7,0,0,1,2244.73,1446.81Zm57.34-41a6.91,6.91,0,0,1-4.67-12,287.49,287.49,0,0,0,24-24.78,6.9,6.9,0,1,1,10.48,9,300.52,300.52,0,0,1-25.13,26A6.92,6.92,0,0,1,2302.07,1405.82Zm45.87-53.56a6.79,6.79,0,0,1-3.82-1.16,6.89,6.89,0,0,1-1.92-9.57,284.06,284.06,0,0,0,17.33-29.81,6.9,6.9,0,1,1,12.33,6.2,298.48,298.48,0,0,1-18.17,31.27A6.91,6.91,0,0,1,2347.94,1352.26Z"/><path class="cls-23" d="M1942.32,1432.47a6.8,6.8,0,0,1-3.86-1.19c-4.9-3.31-9.71-6.78-14.32-10.31a6.9,6.9,0,1,1,8.4-11c4.39,3.37,9,6.68,13.66,9.84a6.9,6.9,0,0,1-3.88,12.62Z"/><path class="cls-21" d="M1948.06,1343.29a3.47,3.47,0,0,0,3.91,1.07l39.93-14.68a185.47,185.47,0,0,0,52.87,28.47l9.74,41.38a3.48,3.48,0,0,0,3,2.68l50.77,5.14a3.48,3.48,0,0,0,3.52-2l17.84-38.59a185.2,185.2,0,0,0,57.5-17.29l36.18,22.39a3.49,3.49,0,0,0,4.05-.26l39.53-32.26a3.51,3.51,0,0,0,1.08-3.92l-14.69-39.93a185.06,185.06,0,0,0,28.47-52.86l41.39-9.74a3.49,3.49,0,0,0,2.67-3.05l5.15-50.77a3.51,3.51,0,0,0-2-3.53l-38.6-17.84a185.2,185.2,0,0,0-17.29-57.5l22.4-36.17a3.49,3.49,0,0,0-.27-4L2263,1020.43a3.5,3.5,0,0,0-3.92-1.07L2219.14,1034a185.42,185.42,0,0,0-52.86-28.47l-9.74-41.38a3.49,3.49,0,0,0-3.05-2.68l-50.77-5.14a3.5,3.5,0,0,0-3.53,2L2081.35,997a185.36,185.36,0,0,0-57.5,17.29l-36.17-22.39a3.49,3.49,0,0,0-4,.26l-39.54,32.27a3.5,3.5,0,0,0-1.07,3.91l14.69,39.93a185,185,0,0,0-28.47,52.87l-41.39,9.73a3.5,3.5,0,0,0-2.68,3.05l-5.14,50.77a3.51,3.51,0,0,0,2,3.53l38.59,17.84a185.47,185.47,0,0,0,17.29,57.5l-22.39,36.17a3.51,3.51,0,0,0,.26,4Z"/><path class="cls-22" d="M2105.41,1234.09a52.42,52.42,0,1,1,7.72-.57A52.88,52.88,0,0,1,2105.41,1234.09Zm.14-90.64a38.41,38.41,0,1,0,5.57,76.41h0a38.41,38.41,0,0,0-5.57-76.41Z"/><path class="cls-22" d="M2106.41,1311.15q-6.55,0-13.21-.66a131.06,131.06,0,0,1-26-5.32l-1.13-.37a6.9,6.9,0,1,1,4.25-13.13,116.74,116.74,0,0,0,24.22,5.08h0l1.35.12a115.09,115.09,0,0,0,56.23-8.9,117.13,117.13,0,0,0,26.81-16.15l.2-.16.61-.5a115.46,115.46,0,0,0,42.16-78.34q.6-6,.6-11.94A116.24,116.24,0,1,0,2001,1230.43a6.83,6.83,0,0,1,.66,2.93,6.9,6.9,0,0,1-13.15,2.94,129.79,129.79,0,0,1-12.28-55.1q0-6.6.66-13.19a130,130,0,1,1,258.76,26.2C2228.9,1261.12,2172.26,1311.15,2106.41,1311.15Z"/><path class="cls-24" d="M1557.18,2250.26,584.31,3052a90.7,90.7,0,0,0-7.62,132.94l6,6.25A84.32,84.32,0,0,0,702.32,3193l906.79-885.39Z"/><ellipse class="cls-25" cx="1983.94" cy="1824.1" rx="584.78" ry="574.23" transform="translate(-494.95 766.53) rotate(-19.49)"/><path class="cls-26" d="M1770.75,1221.75c-338.78,119.91-518,486.79-400.22,819.46s487.82,505.14,826.6,385.24,518-486.79,400.22-819.46S2109.53,1101.85,1770.75,1221.75ZM2165.81,2338c-289,102.3-604.73-44.84-705.18-328.64s52.42-596.79,341.43-699.09,604.74,44.85,705.19,328.65S2454.83,2235.67,2165.81,2338Z"/><path class="cls-1" d="M1442.12,2096.87a1.67,1.67,0,0,1-1.49-.92c-6.84-13.55-13.23-27.57-19-41.65a1.67,1.67,0,0,1,3.09-1.27c5.75,14,12.11,27.94,18.91,41.42a1.67,1.67,0,0,1-1.49,2.42ZM1386.71,1927a1.66,1.66,0,0,1-1.64-1.4,585.2,585.2,0,0,1-7-124.39c6-117.63,46.7-230.52,117.74-326.47,72.73-98.23,172.67-171.92,289-213.1,109.41-38.72,226.53-46,338.7-21a1.67,1.67,0,0,1-.72,3.26c-111.56-24.87-228-17.66-336.87,20.85-115.71,41-215.1,114.25-287.44,212-70.65,95.41-111.13,207.67-117.08,324.64a582.56,582.56,0,0,0,6.92,123.69,1.67,1.67,0,0,1-1.38,1.92Z"/><path class="cls-1" d="M655.67,3188.52c-37.42,0-61.66-13.05-72-38.81-10.58-26.22-2.57-56.88,19.92-76.29l115.58-99.74a1.67,1.67,0,1,1,2.18,2.52L605.72,3076c-21.41,18.47-29.05,47.61-19,72.51,9.93,24.63,33.39,37,70.11,36.72h0a1.67,1.67,0,0,1,0,3.33Z"/><path class="cls-1" d="M755.83,2945.87a1.67,1.67,0,0,1-1.09-2.93l15-12.93a1.67,1.67,0,0,1,2.18,2.53l-15,12.93A1.69,1.69,0,0,1,755.83,2945.87Z"/></g></svg>